<?xml version="1.0" encoding="utf-8"?>
<!-- Generator: Adobe Illustrator 27.5.0, SVG Export Plug-In . SVG Version: 6.00 Build 0)  -->
<svg version="1.1" xmlns="http://www.w3.org/2000/svg" xmlns:xlink="http://www.w3.org/1999/xlink" x="0px" y="0px"
	 viewBox="0 0 600 600" style="enable-background:new 0 0 600 600;" xml:space="preserve">
<g id="background">
	<rect style="fill:#FFFFFF;" width="600" height="600"/>
</g>
<g id="objects">
	<g>
		<polygon style="fill:#262626;" points="290.515,53.032 321.535,84.032 232.515,84.032 232.515,108.032 321.535,108.032 
			290.515,139.032 324.495,139.032 367.485,96.032 324.495,53.032 		"/>
		<path style="fill:#262626;" d="M329.95,190.082c-2.734-2.733-7.166-2.733-9.9,0c-2.733,2.733-2.733,7.166,0,9.899l22.051,22.05
			H241c-3.866,0-7,3.134-7,7s3.134,7,7,7h101.1l-22.051,22.05c-2.733,2.733-2.733,7.166,0,9.899c1.367,1.367,3.159,2.05,4.95,2.05
			s3.583-0.684,4.95-2.05l34-34c2.733-2.733,2.733-7.166,0-9.899L329.95,190.082z"/>
		
		
		
		
	</g>
</g>
</svg>
